<svg width="100" height="30" viewBox="0 0 100 30" fill="none" xmlns="http://www.w3.org/2000/svg">
<g clip-path="url(#clip0_7045_1370)">
<path d="M21.3405 19.4813C21.3396 21.563 20.7129 23.5976 19.5397 25.328C18.3665 27.0583 16.6996 28.4067 14.7495 29.2026C12.7995 29.9986 10.6541 30.2063 8.58438 29.7996C6.51469 29.3929 4.61372 28.39 3.12182 26.9177C1.62992 25.4454 0.614079 23.5698 0.202731 21.5281C-0.208616 19.4864 0.00300193 17.3702 0.81083 15.4471C1.61866 13.524 2.98642 11.8803 4.74119 10.7239C6.49596 9.56754 8.55894 8.95032 10.6693 8.95032C12.0711 8.95032 13.4591 9.22275 14.7542 9.75204C16.0492 10.2813 17.2258 11.0571 18.2168 12.0351C19.2078 13.013 19.9937 14.174 20.5297 15.4517C21.0657 16.7293 21.3412 18.0986 21.3405 19.4813ZM4.2668 19.4813C4.2668 20.7304 4.6423 21.9514 5.34582 22.99C6.04933 24.0285 7.04927 24.838 8.21917 25.316C9.38907 25.794 10.6764 25.9191 11.9184 25.6754C13.1603 25.4317 14.3011 24.8302 15.1966 23.947C16.092 23.0638 16.7017 21.9385 16.9488 20.7134C17.1958 19.4883 17.069 18.2185 16.5844 17.0645C16.0998 15.9105 15.2792 14.9242 14.2263 14.2303C13.1735 13.5363 11.9356 13.1659 10.6693 13.1659C8.97135 13.1663 7.34305 13.8317 6.14242 15.016C4.94179 16.2003 4.26713 17.8065 4.2668 19.4813Z" fill="#3F3F3F" fill-opacity="0.89"/>
<path d="M47.6374 19.4813C47.6377 21.5633 47.012 23.5986 45.8395 25.3298C44.667 27.061 43.0004 28.4103 41.0505 29.2072C39.1005 30.004 36.9548 30.2126 34.8846 29.8064C32.8145 29.4003 30.9129 28.3978 29.4205 26.9256C27.928 25.4534 26.9116 23.5778 26.4999 21.5358C26.0882 19.4938 26.2996 17.3773 27.1075 15.4538C27.9153 13.5304 29.2833 11.8865 31.0383 10.7299C32.7934 9.57341 34.8567 8.95624 36.9674 8.95648C39.7973 8.95648 42.5112 10.0653 44.5123 12.0391C46.5133 14.0129 47.6374 16.69 47.6374 19.4813ZM30.5649 19.4813C30.5649 20.7304 30.9404 21.9514 31.6439 22.99C32.3475 24.0285 33.3474 24.838 34.5173 25.316C35.6872 25.794 36.9745 25.9191 38.2165 25.6754C39.4585 25.4317 40.5993 24.8302 41.4947 23.947C42.3901 23.0638 42.9999 21.9385 43.2469 20.7134C43.4939 19.4883 43.3672 18.2185 42.8826 17.0645C42.398 15.9105 41.5774 14.9242 40.5245 14.2303C39.4716 13.5363 38.2337 13.1659 36.9674 13.1659C35.2694 13.1659 33.6409 13.8313 32.4402 15.0157C31.2395 16.2 30.5649 17.8064 30.5649 19.4813Z" fill="#3F3F3F" fill-opacity="0.89"/>
<path d="M100.001 19.4813C100.001 21.5633 99.3753 23.5986 98.2028 25.3298C97.0303 27.061 95.3637 28.4103 93.4137 29.2072C91.4638 30.004 89.318 30.2126 87.2479 29.8064C85.1778 29.4003 83.2762 28.3978 81.7837 26.9256C80.2913 25.4534 79.2749 23.5778 78.8632 21.5358C78.4515 19.4938 78.6629 17.3773 79.4707 15.4538C80.2786 13.5304 81.6465 11.8865 83.4016 10.7299C85.1567 9.57341 87.22 8.95624 89.3307 8.95648C92.1606 8.95648 94.8745 10.0653 96.8755 12.0391C98.8765 14.0129 100.001 16.69 100.001 19.4813ZM82.9282 19.4813C82.9282 20.7304 83.3037 21.9514 84.0072 22.99C84.7107 24.0285 85.7107 24.838 86.8806 25.316C88.0505 25.794 89.3378 25.9191 90.5798 25.6754C91.8217 25.4317 92.9626 24.8302 93.858 23.947C94.7534 23.0638 95.3631 21.9385 95.6102 20.7134C95.8572 19.4883 95.7304 18.2185 95.2458 17.0645C94.7613 15.9105 93.9406 14.9242 92.8877 14.2303C91.8349 13.5363 90.597 13.1659 89.3307 13.1659C87.6327 13.1659 86.0042 13.8313 84.8035 15.0157C83.6028 16.2 82.9282 17.8064 82.9282 19.4813Z" fill="#3F3F3F" fill-opacity="0.89"/>
<path d="M56.6963 8.56562C54.83 9.65312 53.48 10.896 52.375 12.5605V0H56.6975L56.6963 8.56562Z" fill="#3F3F3F" fill-opacity="0.89"/>
<path d="M4.3225 8.56562C2.45625 9.65312 1.10625 10.896 0 12.5605V0H4.3225V8.56562Z" fill="#3F3F3F" fill-opacity="0.89"/>
<path d="M73.7038 19.4813C73.7041 21.5633 73.0784 23.5986 71.9059 25.3298C70.7334 27.061 69.0668 28.4103 67.1169 29.2072C65.1669 30.004 63.0212 30.2126 60.951 29.8064C58.8809 29.4003 56.9793 28.3978 55.4869 26.9256C53.9944 25.4534 52.978 23.5778 52.5663 21.5358C52.1546 19.4938 52.366 17.3773 53.1739 15.4538C53.9817 13.5304 55.3497 11.8865 57.1047 10.7299C58.8598 9.57341 60.9232 8.95624 63.0338 8.95648C65.8637 8.95648 68.5777 10.0653 70.5787 12.0391C72.5797 14.0129 73.7038 16.69 73.7038 19.4813ZM56.6313 19.4813C56.6313 20.7304 57.0068 21.9514 57.7103 22.99C58.4139 24.0285 59.4138 24.838 60.5837 25.316C61.7536 25.794 63.0409 25.9191 64.2829 25.6754C65.5249 25.4317 66.6657 24.8302 67.5611 23.947C68.4565 23.0638 69.0663 21.9385 69.3133 20.7134C69.5603 19.4883 69.4336 18.2185 68.949 17.0645C68.4644 15.9105 67.6438 14.9242 66.5909 14.2303C65.538 13.5363 64.3001 13.1659 63.0338 13.1659C61.3358 13.1659 59.7073 13.8313 58.5066 15.0157C57.3059 16.2 56.6313 17.8064 56.6313 19.4813Z" fill="#3F3F3F" fill-opacity="0.89"/>
</g>
<defs>
<clipPath id="clip0_7045_1370">
<rect width="100" height="30" fill="white"/>
</clipPath>
</defs>
</svg>
